# xmcd
#
# Track frame offsets: 
#        150
#        3234
#        20293
#        23497
#        29608
#        40450
#        52657
#        54283
#        56672
#        62676
#        124119
#        126550
#        130193
#        134717
#        145830
#        151404
#        160810
#        168620
#        184327
#        196072
#        204381
#        224958
#        243942
#        251079
#        257442
#        278092
#        295021
#        307783
#        312751
#        317873
#        335950
#        344821
#
# Disc length: 4697 seconds
#
# Revision: 0
# Processed by: cddbd v1.5.2PL0 Copyright (c) Steve Scherf et al.
# Submitted via: ExactAudioCopy v0.95b4
#
DISCID=e4125720
DTITLE=The Beatles  - AB  Road - Complete Purple Chick Set v1.1 Jan.26
DTITLE=Various Artist - D2  FLAC
DYEAR=1900
DGENRE=
TTITLE0=Dialogue
TTITLE1=Let It Be 26.18
TTITLE2=It Was So Blue 26.19
TTITLE3=High School Confidential 26.20
TTITLE4=Great Balls Of Fire 26.21
TTITLE5=Don't Let The Sun Catch You Crying 26.22
TTITLE6=Let It Be 26.23
TTITLE7=I Left My Home In The World 26.24
TTITLE8=I Left My Home In The World 26.25
TTITLE9=Let It Be 26.26
TTITLE10=Improvisation 26.27
TTITLE11=Suicide 26.28
TTITLE12=Let It Be 26.29
TTITLE13=Let It Be 26.30
TTITLE14=Let It Be 26.31
TTITLE15=Let It Be 26.32
TTITLE16=Let It Be 26.33
TTITLE17=Let It Be 26.34
TTITLE18=Let It Be 26.35
TTITLE19=Let It Be 26.36
TTITLE20=Let It Be 26.37
TTITLE21=Let It Be 26.38
TTITLE22=Let It Be 26.39
TTITLE23=Let It Be 26.40
TTITLE24=Let It Be 26.41
TTITLE25=Let It Be 26.41P
TTITLE26=Dialogue
TTITLE27=Improvisation 26.42
TTITLE28=Let It Be 26.43
TTITLE29=Let It Be 26.44
TTITLE30=Let It Be 26.45
TTITLE31=Let It Be 26.46
EXTD=
EXTT0=
EXTT1=
EXTT2=
EXTT3=
EXTT4=
EXTT5=
EXTT6=
EXTT7=
EXTT8=
EXTT9=
EXTT10=
EXTT11=
EXTT12=
EXTT13=
EXTT14=
EXTT15=
EXTT16=
EXTT17=
EXTT18=
EXTT19=
EXTT20=
EXTT21=
EXTT22=
EXTT23=
EXTT24=
EXTT25=
EXTT26=
EXTT27=
EXTT28=
EXTT29=
EXTT30=
EXTT31=
PLAYORDER=
